<svg width="112" height="16" viewBox="0 0 112 16" xmlns="http://www.w3.org/2000/svg"><title>Fill 1 Copy 5</title><path d="M2.918 5.69c2.446.926 3.77 3.393 3.77 3.393C9.95 1.271 22.282.021 22.282.021c-1.631.447-2.75 4.693-2.75 4.693-.307 1.748-1.886 4.832-1.886 4.832-3.924 6.115-9.325 5.447-9.325 5.447-9.479 0-8.27-11.71-8.27-11.71.036.934 2.868 2.407 2.868 2.407zm-1.26 2.32s4.818 4.045 5.165 5.886c0 0 5.003-8.498 11.721-10.717 0 0-8.144 1.95-11.708 8.973 0 0-2.226-3.057-5.179-4.142zm34.514 1.726c-.137 1.657-.754 2.956-1.849 3.895-1.123.912-2.602 1.367-4.436 1.367-2.137 0-3.766-.648-4.889-1.947-1.123-1.244-1.684-3.08-1.684-5.51 0-2.486.575-4.35 1.725-5.594C26.216.65 27.915 0 30.133 0c1.808 0 3.245.456 4.313 1.368 1.013.884 1.589 2.127 1.726 3.729h-1.767c-.657 0-1.123-.29-1.396-.87a4.087 4.087 0 0 0-.699-.954c-.548-.414-1.273-.621-2.177-.621-1.26 0-2.232.414-2.916 1.243-.657.828-.986 2.044-.986 3.645 0 1.548.329 2.735.986 3.564.63.856 1.574 1.284 2.834 1.284.876 0 1.602-.221 2.177-.663.52-.414.89-1.077 1.11-1.989h2.834zm2.392 3.936c-.575-.497-.986-1.166-1.232-2.01a9.321 9.321 0 0 1-.37-2.63c0-.745.103-1.492.308-2.237.205-.746.527-1.367.966-1.864.711-.829 1.628-1.32 2.752-1.471 1.122-.151 2.136-.062 3.04.269 1.04.414 1.807 1.133 2.3 2.154.465.912.698 1.976.698 3.19 0 .885-.096 1.644-.287 2.28-.192.635-.44 1.173-.74 1.615-.657.912-1.492 1.478-2.506 1.698a5.541 5.541 0 0 1-2.731.062c-.918-.206-1.65-.558-2.198-1.056zm1.972-7.291c-.575.636-.836 1.58-.78 2.838.054 1.257.287 2.134.697 2.63.165.221.452.408.863.56.411.151.828.165 1.253.041.424-.124.802-.435 1.13-.932.33-.497.507-1.298.534-2.403 0-.994-.158-1.74-.472-2.238-.316-.496-.679-.814-1.09-.952a1.984 1.984 0 0 0-1.232-.02c-.41.124-.712.283-.903.476zm16.893 8.285h-1.438c-.41 0-.746-.13-1.006-.394-.26-.261-.39-.6-.39-1.014V7.624c0-.663-.199-1.147-.596-1.45a2.147 2.147 0 0 0-1.335-.456 2.06 2.06 0 0 0-1.314.455c-.384.304-.575.788-.575 1.45v7.043h-2.876V8.203c0-1.877.486-3.134 1.458-3.77a6.335 6.335 0 0 1 3.225-1.035c1.205 0 2.314.317 3.328.952 1.012.636 1.52 1.92 1.52 3.853v6.463zm5.72 0a21.1 21.1 0 0 1-2.937-.04c-1.054-.083-1.582-.76-1.582-2.031V.415h1.48c.355 0 .67.138.944.414.273.276.41.608.41.994v1.864h1.685v.58c0 .414-.137.753-.411 1.015a1.373 1.373 0 0 1-.986.394h-.287v6.131c0 .471.273.705.821.705h.863v2.154zm7.65-.455a5.053 5.053 0 0 1-1.828.56c-.643.068-1.211.102-1.704.102-.986 0-1.849-.27-2.588-.807-.74-.539-1.11-1.43-1.11-2.673 0-1.16.335-1.988 1.007-2.485.67-.498 1.526-.83 2.568-.995.136 0 .3-.02.492-.062a6.6 6.6 0 0 1 .658-.104c1.205-.165 1.807-.523 1.807-1.077 0-.414-.212-.683-.637-.807a4.198 4.198 0 0 0-1.17-.187 2.97 2.97 0 0 0-1.027.166c-.302.11-.52.318-.658.621h-2.752a3.198 3.198 0 0 1 1.15-2.113c.74-.635 1.793-.952 3.163-.952 1.534 0 2.684.262 3.451.787.794.552 1.192 1.326 1.192 2.32v3.77c0 1.105-.2 1.968-.596 2.59-.398.621-.87 1.07-1.417 1.346zm-.657-5.096c-.384.193-.918.373-1.602.538l-.944.208c-.493.138-.85.318-1.069.538-.192.305-.288.608-.288.912 0 .414.124.745.37.994.247.22.603.331 1.068.331.767 0 1.37-.22 1.808-.662.438-.442.657-1.05.657-1.823V9.115zm9.582-8.7h2.3l5.135 14.251h-3.081l-.945-2.941h-5.505l-.904 2.941h-3.08l4.683-13.298c.246-.635.711-.954 1.397-.954zm.656 2.858l-1.97 6.049h3.943L80.38 3.273zm7.857 11.393V12.47l5.874-6.545h-4.149c-.384 0-.712-.131-.986-.394a1.294 1.294 0 0 1-.41-.974v-.91h8.955v2.36l-5.792 6.256h5.997v2.403h-9.49zm19.892-11.02v6.463c0 1.961-.507 3.246-1.52 3.854a6.358 6.358 0 0 1-3.327.91 6.558 6.558 0 0 1-3.225-.993c-.972-.607-1.459-1.865-1.459-3.77V3.645h2.876v7.044c0 .663.191 1.145.575 1.449.384.304.822.456 1.315.456s.938-.152 1.335-.456c.397-.304.595-.786.595-1.45V5.056c0-.386.13-.718.39-.994s.596-.415 1.007-.415h1.438zm.995-3.232h1.48c.382 0 .711.132.985.394a1.3 1.3 0 0 1 .411.974v12.884h-2.876V.414z" fill="#FFF" fill-rule="evenodd"/></svg>